<svg width="141" height="49" viewBox="0 0 141 49" fill="none" xmlns="http://www.w3.org/2000/svg">
<g clip-path="url(#clip0_1103_449)">
<path d="M0 28.6289H3.67107C5.87061 28.6289 7.31116 30.0934 7.31116 32.0776C7.31116 34.0618 5.87061 35.5421 3.67107 35.5421H1.03781V39.6522H0V28.6289ZM3.64009 34.5342C5.26651 34.5342 6.27334 33.5264 6.27334 32.0776C6.27334 30.6288 5.26651 29.621 3.64009 29.621H1.03781V34.5342H3.64009Z" fill="#F8F0EC"/>
<path d="M9.51172 31.8413H10.3327L10.4876 33.2113C11.0762 32.3295 11.9901 31.8413 13.2293 31.8413H13.9263V32.8334H13.1518C11.4944 32.8334 10.5031 33.9042 10.5031 35.7309V39.6521H9.51172V31.8413Z" fill="#F8F0EC"/>
<path d="M14.9922 35.7471C14.9922 33.4322 16.7425 31.6685 19.1279 31.6685C21.5134 31.6685 23.2482 33.4322 23.2482 35.7471C23.2482 38.062 21.4979 39.8414 19.1279 39.8414C16.758 39.8414 14.9922 38.062 14.9922 35.7471ZM19.1279 38.8966C20.9248 38.8966 22.2569 37.5423 22.2569 35.7471C22.2569 33.9518 20.9248 32.5976 19.1279 32.5976C17.3311 32.5976 15.9835 33.9518 15.9835 35.7471C15.9835 37.5423 17.3156 38.8966 19.1279 38.8966Z" fill="#F8F0EC"/>
<path d="M25.0781 35.7469C25.0781 33.4163 26.813 31.6683 29.09 31.6683C30.3756 31.6683 31.5064 32.2352 32.2344 33.1328V28.1094H33.2257V39.6523H32.4048L32.2499 38.3453C31.5219 39.2586 30.3911 39.8413 29.09 39.8413C26.813 39.8413 25.0781 38.0776 25.0781 35.7469ZM29.1674 38.8964C30.9952 38.8964 32.2809 37.5894 32.2809 35.7469C32.2809 33.9045 30.9952 32.5974 29.1674 32.5974C27.3396 32.5974 26.0695 33.9045 26.0695 35.7469C26.0695 37.5894 27.3706 38.8964 29.1674 38.8964Z" fill="#F8F0EC"/>
<path d="M39.42 38.8805C40.9225 38.8805 42.1152 37.6049 42.1152 35.8727V31.8413H43.1066V39.6521H42.2856L42.1307 38.3135C41.4801 39.2741 40.3804 39.8411 39.2031 39.8411C37.2824 39.8411 36.0742 38.5498 36.0742 36.3608V31.8413H37.0656V36.1719C37.0656 38.1088 37.933 38.8805 39.42 38.8805Z" fill="#F8F0EC"/>
<path d="M45.4297 35.7471C45.4297 33.4007 47.1336 31.6685 49.457 31.6685C51.3777 31.6685 52.8028 32.7865 53.283 34.5345H52.2607C51.827 33.2905 50.8046 32.6133 49.4415 32.6133C47.7222 32.6133 46.421 33.9204 46.421 35.7471C46.421 37.5738 47.7222 38.8966 49.4415 38.8966C50.8046 38.8966 51.827 38.2037 52.2762 36.9596H53.2985C52.7873 38.7233 51.3623 39.8414 49.457 39.8414C47.1336 39.8414 45.4297 38.1092 45.4297 35.7471Z" fill="#F8F0EC"/>
<path d="M56.1803 36.7865V32.7708H54.4609V31.8417H56.1958L56.2732 29.5898H57.1716V31.8417H60.0372V32.7708H57.1716V36.7707C57.1716 38.0305 57.8377 38.6919 59.0459 38.6919H60.0992V39.6525H58.9685C57.2181 39.6525 56.1803 38.5974 56.1803 36.7865Z" fill="#F8F0EC"/>
<path d="M61.5703 35.7471C61.5703 33.4322 63.3207 31.6685 65.7061 31.6685C68.0915 31.6685 69.8263 33.4322 69.8263 35.7471C69.8263 38.062 68.076 39.8414 65.7061 39.8414C63.3361 39.8414 61.5703 38.062 61.5703 35.7471ZM65.7061 38.8966C67.5029 38.8966 68.835 37.5423 68.835 35.7471C68.835 33.9518 67.5029 32.5976 65.7061 32.5976C63.9093 32.5976 62.5617 33.9518 62.5617 35.7471C62.5617 37.5423 63.8938 38.8966 65.7061 38.8966Z" fill="#F8F0EC"/>
<path d="M72.168 31.8413H72.9889L73.1438 33.2113C73.7324 32.3295 74.6463 31.8413 75.8855 31.8413H76.5825V32.8334H75.8081C74.1507 32.8334 73.1593 33.9042 73.1593 35.7309V39.6521H72.168V31.8413Z" fill="#F8F0EC"/>
<path d="M78.3945 28.3301H79.6027V29.6371H78.3945V28.3301ZM78.503 31.8418H79.4943V39.6526H78.503V31.8418Z" fill="#F8F0EC"/>
<path d="M84.7293 35.2117H87.5794V34.818C87.5794 33.3692 86.7584 32.5976 85.3799 32.5976C84.1562 32.5976 83.4127 33.1487 83.1803 34.0306H82.127C82.4058 32.5818 83.6295 31.6685 85.3953 31.6685C87.3006 31.6685 88.5553 32.8653 88.5553 34.7235V39.6525H87.7498L87.6259 38.4084C86.9443 39.3532 85.8291 39.8414 84.6828 39.8414C83.0099 39.8414 81.9102 38.9596 81.9102 37.5108C81.9102 36.1565 82.9325 35.2117 84.7293 35.2117ZM84.7293 38.8966C86.4641 38.8966 87.5794 37.7627 87.5794 36.3455V36.0778H84.7603C83.5366 36.0778 82.917 36.6289 82.917 37.495C82.917 38.3612 83.5676 38.8966 84.7293 38.8966Z" fill="#F8F0EC"/>
<path d="M90.9375 38.2349H92.1767V39.6521H90.9375V38.2349Z" fill="#F8F0EC"/>
<path d="M94.2969 36.3137H95.3347C95.3347 37.794 96.3415 38.8176 98.2313 38.8176C100.013 38.8176 100.926 37.8885 100.926 36.7074C100.926 35.1956 99.5324 34.8492 97.9989 34.4712C96.326 34.0618 94.5137 33.5736 94.5137 31.432C94.5137 29.7312 95.7684 28.4399 98.1073 28.4399C100.446 28.4399 101.67 29.7785 101.67 31.6839H100.617C100.617 30.4084 99.7028 29.4635 98.0764 29.4635C96.4499 29.4635 95.5515 30.3139 95.5515 31.3847C95.5515 32.7863 96.8682 33.1327 98.3707 33.4949C100.09 33.9358 101.964 34.3925 101.964 36.6444C101.964 38.4554 100.617 39.8411 98.2313 39.8411C95.7064 39.8411 94.2969 38.3924 94.2969 36.3137Z" fill="#F8F0EC"/>
<path d="M105.421 38.3612V42.6917H104.43V31.8417H105.251L105.406 33.1487C106.149 32.2354 107.264 31.6685 108.565 31.6685C110.858 31.6685 112.577 33.4164 112.577 35.7471C112.577 38.0777 110.858 39.8414 108.565 39.8414C107.28 39.8414 106.149 39.2745 105.421 38.3612ZM108.488 38.8966C110.3 38.8966 111.586 37.5895 111.586 35.7471C111.586 33.9046 110.3 32.5976 108.488 32.5976C106.676 32.5976 105.375 33.9046 105.375 35.7471C105.375 37.5895 106.66 38.8966 108.488 38.8966Z" fill="#F8F0EC"/>
<path d="M117.3 35.2117H120.15V34.818C120.15 33.3692 119.329 32.5976 117.95 32.5976C116.726 32.5976 115.983 33.1487 115.751 34.0306H114.697C114.976 32.5818 116.2 31.6685 117.966 31.6685C119.871 31.6685 121.126 32.8653 121.126 34.7235V39.6525H120.32L120.196 38.4084C119.515 39.3532 118.399 39.8414 117.253 39.8414C115.58 39.8414 114.48 38.9596 114.48 37.5108C114.48 36.1565 115.503 35.2117 117.3 35.2117ZM117.3 38.8966C119.034 38.8966 120.15 37.7627 120.15 36.3455V36.0778H117.331C116.107 36.0778 115.487 36.6289 115.487 37.495C115.487 38.3612 116.138 38.8966 117.3 38.8966Z" fill="#F8F0EC"/>
<path d="M123.34 35.7471C123.34 33.4007 125.044 31.6685 127.367 31.6685C129.288 31.6685 130.713 32.7865 131.193 34.5345H130.171C129.737 33.2905 128.715 32.6133 127.352 32.6133C125.632 32.6133 124.331 33.9204 124.331 35.7471C124.331 37.5738 125.632 38.8966 127.352 38.8966C128.715 38.8966 129.737 38.2037 130.186 36.9596H131.209C130.697 38.7233 129.272 39.8414 127.367 39.8414C125.044 39.8414 123.34 38.1092 123.34 35.7471Z" fill="#F8F0EC"/>
<path d="M132.992 35.7471C132.992 33.4007 134.712 31.6685 136.989 31.6685C139.266 31.6685 141 33.3534 141 35.7313C141 35.873 140.985 35.9833 140.985 36.0935H133.999C134.154 37.7627 135.362 38.8966 137.081 38.8966C138.259 38.8966 139.157 38.4241 139.715 37.4635H140.753C140.086 38.9281 138.816 39.8414 137.066 39.8414C134.681 39.8414 132.992 38.0777 132.992 35.7471ZM139.978 35.2117C139.808 33.6999 138.708 32.5976 136.989 32.5976C135.424 32.5976 134.247 33.6526 134.015 35.2117H139.978Z" fill="#F8F0EC"/>
<path d="M88.0049 0C85.7589 0 81.9732 1.65034 76.7501 4.90063C72.8405 2.46921 68.2029 0 65.486 0C63.0727 0 60.8607 0.894459 59.1538 2.37473C56.5391 1.01099 54.0174 0 52.2794 0C46.8859 0 42.4961 4.46285 42.4961 9.94614C42.4961 15.4294 46.8859 19.8923 52.2794 19.8923C53.8284 19.8923 56.1426 19.0923 59.1538 17.5175C60.8607 18.9978 63.0727 19.8923 65.486 19.8923C68.2029 19.8923 72.8374 17.4231 76.747 14.9948C80.6535 17.4262 85.2911 19.8923 88.008 19.8923C93.4016 19.8923 97.7914 15.4294 97.7914 9.94614C97.7914 4.46285 93.4016 0 88.0049 0ZM65.486 0.944852C69.8448 0.944852 80.1207 8.18556 82.5526 9.94614C81.5798 10.6516 79.3493 12.2327 76.7439 13.8767C73.2773 11.6878 70.4737 9.60914 70.4148 9.56505C70.0833 9.31939 65.0399 5.58092 60.046 2.8503C61.5485 1.65664 63.4351 0.944852 65.486 0.944852ZM43.4255 9.94614C43.4255 4.98252 47.397 0.944852 52.2794 0.944852C53.8036 0.944852 56.0527 1.83301 58.4381 3.05817C56.7467 4.84709 55.7026 7.27221 55.7026 9.94299C55.7026 12.6138 56.7436 15.0389 58.435 16.8278C55.7026 18.2325 53.6332 18.9443 52.2794 18.9443C47.397 18.9443 43.4255 14.9066 43.4255 9.94299V9.94614ZM65.486 18.9474C60.6036 18.9474 56.632 14.9098 56.632 9.94614C56.632 7.42968 57.6544 5.14944 59.2994 3.51485C64.3986 6.27066 69.7859 10.2642 69.8665 10.3272C70.0988 10.5005 72.6391 12.3839 75.8548 14.4342C72.1435 16.7207 67.9055 18.9474 65.486 18.9474ZM88.0049 18.9474C85.5854 18.9474 81.3475 16.7176 77.6361 14.4342C80.8518 12.3839 83.3921 10.5005 83.6245 10.3272L84.1356 9.94614L83.6245 9.56505C83.3921 9.39182 80.8518 7.50842 77.6361 5.45809C82.4379 2.50386 86.0161 0.944852 88.0049 0.944852C92.8873 0.944852 96.8589 4.98252 96.8589 9.94614C96.8589 14.9098 92.8873 18.9474 88.0049 18.9474Z" fill="#F8F0EC"/>
<path d="M11.5968 47.6963H11.7053C12.0925 47.6963 12.3187 47.4884 12.3806 46.8238L12.5789 44.4995H14.6514V48.027H14.3199V44.8271H12.8856L12.7059 46.89C12.6316 47.6963 12.3156 48.0333 11.7084 48.0333H11.5938V47.6963H11.5968Z" fill="#F8F0EC"/>
<path d="M16.3632 46.6065H17.2771V46.4805C17.2771 46.0175 17.0138 45.7687 16.5739 45.7687C16.1836 45.7687 15.945 45.9451 15.8707 46.2285H15.533C15.6228 45.7656 16.0132 45.4727 16.5801 45.4727C17.1904 45.4727 17.5931 45.8569 17.5931 46.449V48.0269H17.336L17.2957 47.6301C17.0789 47.9324 16.7195 48.0899 16.354 48.0899C15.818 48.0899 15.4648 47.8064 15.4648 47.3435C15.4648 46.9088 15.7932 46.6065 16.3663 46.6065H16.3632ZM16.3632 47.7875C16.9178 47.7875 17.2771 47.4253 17.2771 46.9718V46.8868H16.3756C15.9853 46.8868 15.7839 47.0632 15.7839 47.3403C15.7839 47.6175 15.9915 47.7875 16.3632 47.7875Z" fill="#F8F0EC"/>
<path d="M18.4771 47.2774C18.378 47.0349 18.3594 46.764 18.3594 46.4617C18.3594 45.2523 18.7373 44.4869 19.896 44.3893C20.2336 44.3641 20.5465 44.3578 20.8594 44.2822V44.594C20.5682 44.6602 20.2491 44.6602 19.9269 44.6885C19.0936 44.7704 18.7528 45.2019 18.6816 46.0648C18.9201 45.7215 19.3166 45.5546 19.7566 45.5546C20.4691 45.5546 21.0019 46.1026 21.0019 46.8113C21.0019 47.5199 20.4598 48.0868 19.6915 48.0868C19.0874 48.0868 18.6661 47.775 18.4771 47.2743V47.2774ZM19.6915 47.7876C20.2801 47.7876 20.6828 47.3845 20.6828 46.8207C20.6828 46.257 20.2863 45.8633 19.6853 45.8633C19.0843 45.8633 18.6878 46.2664 18.6878 46.8207C18.6878 47.375 19.0936 47.7876 19.6884 47.7876H19.6915Z" fill="#F8F0EC"/>
<path d="M21.5742 46.7797C21.5742 46.0396 22.1349 45.4727 22.897 45.4727C23.6591 45.4727 24.2168 46.0364 24.2168 46.7797C24.2168 47.523 23.656 48.0899 22.897 48.0899C22.138 48.0899 21.5742 47.5198 21.5742 46.7797ZM22.897 47.7875C23.4733 47.7875 23.8977 47.3529 23.8977 46.7797C23.8977 46.2065 23.4702 45.7719 22.897 45.7719C22.3239 45.7719 21.8902 46.2065 21.8902 46.7797C21.8902 47.3529 22.3177 47.7875 22.897 47.7875Z" fill="#F8F0EC"/>
<path d="M25.2808 47.6143V49.0001H24.9648V45.5262H25.2282L25.2777 45.9451C25.5163 45.6522 25.8725 45.4727 26.2877 45.4727C27.0219 45.4727 27.5733 46.0333 27.5733 46.7797C27.5733 47.5261 27.0219 48.0899 26.2877 48.0899C25.8756 48.0899 25.5132 47.9072 25.2808 47.6175V47.6143ZM26.2629 47.7844C26.8422 47.7844 27.2542 47.3655 27.2542 46.7766C27.2542 46.1876 26.8422 45.7687 26.2629 45.7687C25.6836 45.7687 25.2653 46.1876 25.2653 46.7766C25.2653 47.3655 25.6774 47.7844 26.2629 47.7844Z" fill="#F8F0EC"/>
<path d="M29.0859 46.6065H29.9998V46.4805C29.9998 46.0175 29.7365 45.7687 29.2966 45.7687C28.9062 45.7687 28.6677 45.9451 28.5933 46.2285H28.2557C28.3455 45.7656 28.7358 45.4727 29.3028 45.4727C29.9131 45.4727 30.3158 45.8569 30.3158 46.449V48.0269H30.0587L30.0184 47.6301C29.8015 47.9324 29.4422 48.0899 29.0766 48.0899C28.5407 48.0899 28.1875 47.8064 28.1875 47.3435C28.1875 46.9088 28.5159 46.6065 29.089 46.6065H29.0859ZM29.0859 47.7875C29.6404 47.7875 29.9998 47.4253 29.9998 46.9718V46.8868H29.0983C28.708 46.8868 28.5066 47.0632 28.5066 47.3403C28.5066 47.6175 28.7141 47.7875 29.0859 47.7875Z" fill="#F8F0EC"/>
<path d="M30.8555 45.5293H33.1418V45.8379H32.1597V48.03H31.8437V45.8379H30.8555V45.5293Z" fill="#F8F0EC"/>
<path d="M33.4727 46.7797C33.4727 46.0396 34.0334 45.4727 34.7955 45.4727C35.5576 45.4727 36.1152 46.0364 36.1152 46.7797C36.1152 47.523 35.5545 48.0899 34.7955 48.0899C34.0365 48.0899 33.4727 47.5198 33.4727 46.7797ZM34.7955 47.7875C35.3717 47.7875 35.7961 47.3529 35.7961 46.7797C35.7961 46.2065 35.3686 45.7719 34.7955 45.7719C34.2224 45.7719 33.7886 46.2065 33.7886 46.7797C33.7886 47.3529 34.2162 47.7875 34.7955 47.7875Z" fill="#F8F0EC"/>
<path d="M37.1754 47.6143V49.0001H36.8594V45.5262H37.1227L37.1723 45.9451C37.4108 45.6522 37.7671 45.4727 38.1822 45.4727C38.9164 45.4727 39.4678 46.0333 39.4678 46.7797C39.4678 47.5261 38.9164 48.0899 38.1822 48.0899C37.7702 48.0899 37.4077 47.9072 37.1754 47.6175V47.6143ZM38.1574 47.7844C38.7367 47.7844 39.1488 47.3655 39.1488 46.7766C39.1488 46.1876 38.7367 45.7687 38.1574 45.7687C37.5781 45.7687 37.1599 46.1876 37.1599 46.7766C37.1599 47.3655 37.5719 47.7844 38.1574 47.7844Z" fill="#F8F0EC"/>
<path d="M40.2148 45.5293H40.5277V47.5292L42.0457 45.5293H42.3679V48.03H42.055V46.0301L40.537 48.03H40.2148V45.5293Z" fill="#F8F0EC"/>
<path d="M44.8642 47.057H44.0959L43.4515 48.0302H43.0859L43.7613 47.0161C43.3895 46.931 43.1603 46.6381 43.1603 46.2885C43.1603 45.8539 43.4825 45.5264 43.9998 45.5264H45.1863V48.0271H44.8704V47.0539L44.8642 47.057ZM44.0215 46.7641H44.8642V45.8224H44.0215C43.6684 45.8224 43.4794 46.0145 43.4794 46.2917C43.4794 46.5689 43.6684 46.7641 44.0215 46.7641Z" fill="#F8F0EC"/>
<path d="M47.4609 45.5293H49.6574V48.03H49.3414V45.8379H47.78V48.03H47.464V45.5293H47.4609Z" fill="#F8F0EC"/>
<path d="M50.2266 47.7153H50.3071C50.6293 47.7153 50.7842 47.5389 50.8431 47.0602L51.0258 45.5264H52.7266V48.0271H52.4106V45.835H51.3108L51.1559 47.0948C51.0723 47.7909 50.8338 48.0365 50.2916 48.0365H50.2266V47.7153Z" fill="#F8F0EC"/>
<path d="M54.3984 46.6065H55.3123V46.4805C55.3123 46.0175 55.049 45.7687 54.6091 45.7687C54.2187 45.7687 53.9802 45.9451 53.9058 46.2285H53.5682C53.658 45.7656 54.0483 45.4727 54.6153 45.4727C55.2256 45.4727 55.6283 45.8569 55.6283 46.449V48.0269H55.3712L55.3309 47.6301C55.114 47.9324 54.7547 48.0899 54.3891 48.0899C53.8532 48.0899 53.5 47.8064 53.5 47.3435C53.5 46.9088 53.8284 46.6065 54.4015 46.6065H54.3984ZM54.3984 47.7875C54.9529 47.7875 55.3123 47.4253 55.3123 46.9718V46.8868H54.4108C54.0205 46.8868 53.8191 47.0632 53.8191 47.3403C53.8191 47.6175 54.0266 47.7875 54.3984 47.7875Z" fill="#F8F0EC"/>
<path d="M56.168 45.5293H58.4543V45.8379H57.4722V48.03H57.1562V45.8379H56.168V45.5293Z" fill="#F8F0EC"/>
<path d="M60.166 48.0898C59.3327 48.0646 58.7812 47.4914 58.7812 46.7796C58.7812 46.0678 59.3327 45.4978 60.166 45.4726V44.3545H60.482V45.4726C61.3154 45.5041 61.8606 46.071 61.8606 46.7796C61.8606 47.4882 61.3154 48.0615 60.482 48.0898V49.0032H60.166V48.0898ZM60.166 47.7875V45.7718C59.5031 45.797 59.1003 46.219 59.1003 46.7796C59.1003 47.3402 59.5031 47.7623 60.166 47.7875ZM61.5446 46.7796C61.5446 46.2253 61.1388 45.797 60.482 45.7718V47.7875C61.1357 47.7623 61.5446 47.3339 61.5446 46.7796Z" fill="#F8F0EC"/>
<path d="M62.4453 46.7797C62.4453 46.0396 63.006 45.4727 63.7681 45.4727C64.5302 45.4727 65.0879 46.0364 65.0879 46.7797C65.0879 47.523 64.5271 48.0899 63.7681 48.0899C63.0091 48.0899 62.4453 47.5198 62.4453 46.7797ZM63.7681 47.7875C64.3444 47.7875 64.7688 47.3529 64.7688 46.7797C64.7688 46.2065 64.3413 45.7719 63.7681 45.7719C63.195 45.7719 62.7613 46.2065 62.7613 46.7797C62.7613 47.3529 63.1888 47.7875 63.7681 47.7875Z" fill="#F8F0EC"/>
<path d="M66.1558 47.6143V49.0001H65.8398V45.5262H66.1032L66.1527 45.9451C66.3913 45.6522 66.7475 45.4727 67.1627 45.4727C67.8969 45.4727 68.4483 46.0333 68.4483 46.7797C68.4483 47.5261 67.8969 48.0899 67.1627 48.0899C66.7506 48.0899 66.3882 47.9072 66.1558 47.6175V47.6143ZM67.1379 47.7844C67.7172 47.7844 68.1292 47.3655 68.1292 46.7766C68.1292 46.1876 67.7172 45.7687 67.1379 45.7687C66.5586 45.7687 66.1403 46.1876 66.1403 46.7766C66.1403 47.3655 66.5524 47.7844 67.1379 47.7844Z" fill="#F8F0EC"/>
<path d="M69.4697 45.5293H69.7578L70.6562 47.3781L71.5484 45.5293H71.8365L72.3632 48.03H72.041L71.6258 46.049L70.7429 47.8694H70.5694L69.6865 46.049L69.2714 48.03H68.9492L69.4759 45.5293H69.4697Z" fill="#F8F0EC"/>
<path d="M74.4141 45.5293H74.727V47.5292L76.245 45.5293H76.5671V48.03H76.2542V46.0301L74.7363 48.03H74.4141V45.5293Z" fill="#F8F0EC"/>
<path d="M79.1558 47.6143V49.0001H78.8398V45.5262H79.1032L79.1527 45.9451C79.3913 45.6522 79.7475 45.4727 80.1627 45.4727C80.8969 45.4727 81.4483 46.0333 81.4483 46.7797C81.4483 47.5261 80.8969 48.0899 80.1627 48.0899C79.7506 48.0899 79.3882 47.9072 79.1558 47.6175V47.6143ZM80.1379 47.7844C80.7172 47.7844 81.1292 47.3655 81.1292 46.7766C81.1292 46.1876 80.7172 45.7687 80.1379 45.7687C79.5586 45.7687 79.1403 46.1876 79.1403 46.7766C79.1403 47.3655 79.5524 47.7844 80.1379 47.7844Z" fill="#F8F0EC"/>
<path d="M82.0312 46.7797C82.0312 46.0301 82.5827 45.4727 83.3107 45.4727C84.0387 45.4727 84.5964 46.0112 84.5964 46.7734C84.5964 46.8175 84.5901 46.8553 84.5901 46.8899H82.3534C82.403 47.4253 82.7902 47.7875 83.3417 47.7875C83.7196 47.7875 84.0077 47.6364 84.1843 47.3277H84.5158C84.302 47.797 83.8962 48.0899 83.3355 48.0899C82.5734 48.0899 82.0312 47.5261 82.0312 46.7797ZM84.268 46.6096C84.2122 46.1246 83.8621 45.7719 83.3107 45.7719C82.8088 45.7719 82.434 46.1089 82.3596 46.6096H84.268Z" fill="#F8F0EC"/>
<path d="M85.3421 45.5293H85.6581V47.7214H86.8323V45.5293H87.1482V47.7214H88.3224V45.5293H88.6384V48.03H85.3359V45.5293H85.3421Z" fill="#F8F0EC"/>
<path d="M89.3867 46.7797C89.3867 46.0301 89.9382 45.4727 90.6662 45.4727C91.3942 45.4727 91.9518 46.0112 91.9518 46.7734C91.9518 46.8175 91.9456 46.8553 91.9456 46.8899H89.7089C89.7585 47.4253 90.1457 47.7875 90.6972 47.7875C91.0751 47.7875 91.3632 47.6364 91.5398 47.3277H91.8713C91.6575 47.797 91.2517 48.0899 90.691 48.0899C89.9289 48.0899 89.3867 47.5261 89.3867 46.7797ZM91.6234 46.6096C91.5677 46.1246 91.2176 45.7719 90.6662 45.7719C90.1643 45.7719 89.7895 46.1089 89.7151 46.6096H91.6234Z" fill="#F8F0EC"/>
<path d="M94.5766 46.8933H93.0152V48.0271H92.6992V45.5264H93.0152V46.5846H94.5766V45.5264H94.8926V48.0271H94.5766V46.8933Z" fill="#F8F0EC"/>
<path d="M95.8047 45.5293H96.1176V47.5292L97.6356 45.5293H97.9578V48.03H97.6449V46.0301L96.1269 48.03H95.8047V45.5293Z" fill="#F8F0EC"/>
<path d="M98.8633 45.5293H99.1762V47.5292L100.694 45.5293H101.016V48.03H100.703V46.0301L99.1855 48.03H98.8633V45.5293ZM99.3032 44.6758H100.583V44.9372H99.3032V44.6758Z" fill="#F8F0EC"/>
<path d="M105.17 46.8933H103.609V48.0271H103.293V45.5264H103.609V46.5846H105.17V45.5264H105.486V48.0271H105.17V46.8933Z" fill="#F8F0EC"/>
<path d="M107.164 46.6065H108.078V46.4805C108.078 46.0175 107.815 45.7687 107.375 45.7687C106.984 45.7687 106.746 45.9451 106.671 46.2285H106.334C106.424 45.7656 106.814 45.4727 107.381 45.4727C107.991 45.4727 108.394 45.8569 108.394 46.449V48.0269H108.137L108.097 47.6301C107.88 47.9324 107.52 48.0899 107.155 48.0899C106.619 48.0899 106.266 47.8064 106.266 47.3435C106.266 46.9088 106.594 46.6065 107.167 46.6065H107.164ZM107.164 47.7875C107.719 47.7875 108.078 47.4253 108.078 46.9718V46.8868H107.176C106.786 46.8868 106.585 47.0632 106.585 47.3403C106.585 47.6175 106.792 47.7875 107.164 47.7875Z" fill="#F8F0EC"/>
<path d="M110.152 47.7276H110.433C110.663 47.5166 110.722 47.2993 110.864 45.5293H112.67V47.7276H113.042V48.7575H112.729V48.0332H110.461V48.7575H110.148V47.7276H110.152ZM112.354 47.7276V45.8379H111.158C111.059 47.1985 110.979 47.5009 110.796 47.7276H112.354Z" fill="#F8F0EC"/>
<path d="M114.465 46.6065H115.379V46.4805C115.379 46.0175 115.115 45.7687 114.675 45.7687C114.285 45.7687 114.047 45.9451 113.972 46.2285H113.635C113.724 45.7656 114.115 45.4727 114.682 45.4727C115.292 45.4727 115.695 45.8569 115.695 46.449V48.0269H115.438L115.397 47.6301C115.18 47.9324 114.821 48.0899 114.456 48.0899C113.92 48.0899 113.566 47.8064 113.566 47.3435C113.566 46.9088 113.895 46.6065 114.468 46.6065H114.465ZM114.465 47.7875C115.019 47.7875 115.379 47.4253 115.379 46.9718V46.8868H114.477C114.087 46.8868 113.885 47.0632 113.885 47.3403C113.885 47.6175 114.093 47.7875 114.465 47.7875Z" fill="#F8F0EC"/>
<path d="M118.44 46.8933H116.878V48.0271H116.562V45.5264H116.878V46.5846H118.44V45.5264H118.756V48.0271H118.44V46.8933Z" fill="#F8F0EC"/>
<path d="M121.545 46.8933H119.984V48.0271H119.668V45.5264H119.984V46.5846H121.545V45.5264H121.861V48.0271H121.545V46.8933Z" fill="#F8F0EC"/>
<path d="M122.777 45.5293H123.093V46.408H123.805C124.409 46.408 124.747 46.7513 124.747 47.2206C124.747 47.6899 124.409 48.0332 123.805 48.0332H122.773V45.5324L122.777 45.5293ZM123.777 47.7371C124.223 47.7371 124.428 47.5292 124.428 47.2174C124.428 46.9056 124.223 46.6978 123.777 46.6978H123.093V47.7371H123.777ZM125.289 45.5293H125.605V48.03H125.289V45.5293Z" fill="#F8F0EC"/>
<path d="M127.145 46.723L126.262 45.5293H126.633L127.343 46.4962L128.068 45.5293H128.44L127.547 46.7104L128.523 48.03H128.145L127.346 46.9308L126.537 48.03H126.172L127.145 46.723Z" fill="#F8F0EC"/>
</g>
<defs>
<clipPath id="clip0_1103_449">
<rect width="141" height="49" fill="white"/>
</clipPath>
</defs>
</svg>
